<svg width="52" height="52" viewBox="0 0 52 52" fill="none" xmlns="http://www.w3.org/2000/svg">
<g filter="url(#filter0_d_2_26)">
<circle cx="26" cy="22" r="22" fill="#67A8D2"/>
</g>
<path d="M26 10.5923C27.5127 10.5923 28.9635 11.1932 30.0331 12.2629C31.1028 13.3325 31.7037 14.7833 31.7037 16.296C31.7037 17.8087 31.1028 19.2595 30.0331 20.3291C28.9635 21.3988 27.5127 21.9997 26 21.9997C24.4873 21.9997 23.0365 21.3988 21.9669 20.3291C20.8972 19.2595 20.2963 17.8087 20.2963 16.296C20.2963 14.7833 20.8972 13.3325 21.9669 12.2629C23.0365 11.1932 24.4873 10.5923 26 10.5923ZM26 24.8515C32.3026 24.8515 37.4074 27.404 37.4074 30.5552V33.4071H14.5926V30.5552C14.5926 27.404 19.6974 24.8515 26 24.8515Z" fill="white"/>
<defs>
<filter id="filter0_d_2_26" x="0" y="0" width="52" height="52" filterUnits="userSpaceOnUse" color-interpolation-filters="sRGB">
<feFlood flood-opacity="0" result="BackgroundImageFix"/>
<feColorMatrix in="SourceAlpha" type="matrix" values="0 0 0 0 0 0 0 0 0 0 0 0 0 0 0 0 0 0 127 0" result="hardAlpha"/>
<feOffset dy="4"/>
<feGaussianBlur stdDeviation="2"/>
<feComposite in2="hardAlpha" operator="out"/>
<feColorMatrix type="matrix" values="0 0 0 0 0 0 0 0 0 0 0 0 0 0 0 0 0 0 0.25 0"/>
<feBlend mode="normal" in2="BackgroundImageFix" result="effect1_dropShadow_2_26"/>
<feBlend mode="normal" in="SourceGraphic" in2="effect1_dropShadow_2_26" result="shape"/>
</filter>
</defs>
</svg>
