<svg width="505" height="81" viewBox="0 0 505 81" fill="none" xmlns="http://www.w3.org/2000/svg">
<rect x="-5" y="11" width="425" height="44" fill="#FE8572"/>
<rect width="410" height="46" fill="#1B567C"/>
<circle cx="357.5" cy="45.5" r="3.5" fill="white"/>
<path d="M434.274 79.958L434.292 78.9581L434.274 79.958ZM505 64.4771L493.614 66.3961L500.969 75.2976L505 64.4771ZM356.171 46.5598C356.796 47.4848 357.543 48.4801 358.41 49.5279L359.951 48.2528C359.12 47.2487 358.413 46.3053 357.829 45.4402L356.171 46.5598ZM363.497 54.8956C365.155 56.4504 367.025 58.0534 369.108 59.6641L370.332 58.082C368.298 56.5095 366.476 54.9476 364.866 53.4369L363.497 54.8956ZM375.107 63.9117C377.077 65.189 379.183 66.4487 381.426 67.67L382.382 65.9135C380.185 64.717 378.122 63.4834 376.195 62.2336L375.107 63.9117ZM387.988 70.9383C390.149 71.9194 392.413 72.8571 394.779 73.7378L395.476 71.8634C393.155 70.9991 390.934 70.0792 388.815 69.1172L387.988 70.9383ZM401.733 76.0625C404.015 76.7417 406.378 77.3654 408.822 77.9239L409.268 75.9741C406.866 75.4253 404.544 74.8126 402.303 74.1456L401.733 76.0625ZM416.016 79.332C418.371 79.7179 420.793 80.0427 423.281 80.2992L423.486 78.3097C421.037 78.0573 418.655 77.7378 416.339 77.3583L416.016 79.332ZM430.591 80.841C431.799 80.8962 433.02 80.9353 434.256 80.9578L434.292 78.9581C433.075 78.936 431.871 78.8974 430.682 78.8431L430.591 80.841ZM434.256 80.9578C435.509 80.9805 436.745 80.9939 437.962 80.9984L437.969 78.9984C436.762 78.994 435.536 78.9807 434.292 78.9581L434.256 80.9578ZM445.369 80.9117C447.922 80.8415 450.387 80.7304 452.766 80.5828L452.642 78.5866C450.287 78.7328 447.844 78.8428 445.314 78.9125L445.369 80.9117ZM460.144 79.9849C462.717 79.7255 465.174 79.4222 467.517 79.0819L467.229 77.1026C464.916 77.4387 462.488 77.7385 459.944 77.995L460.144 79.9849ZM474.82 77.8371C477.403 77.3278 479.818 76.7736 482.068 76.1876L481.564 74.2521C479.354 74.8277 476.978 75.373 474.433 75.8749L474.82 77.8371ZM489.209 74.052C491.826 73.1568 494.137 72.2279 496.154 71.3001L495.319 69.4831C493.368 70.3806 491.12 71.2847 488.561 72.1597L489.209 74.052Z" fill="white"/>
</svg>
