<svg width="28" height="28" viewBox="0 0 28 28" fill="none" xmlns="http://www.w3.org/2000/svg">
<circle opacity="0.2" cx="14" cy="14" r="14" fill="white"/>
<g opacity="0.7">
<path d="M18.865 22.7201C18.6969 22.7196 18.5292 22.7012 18.365 22.6651C15.2383 22.0183 12.3578 20.5018 10.055 18.2901C7.80134 16.0735 6.2383 13.2514 5.55501 10.1651C5.47444 9.78046 5.49421 9.38155 5.61243 9.00676C5.73064 8.63197 5.94332 8.29391 6.23001 8.0251L8.23001 6.1001C8.33216 6.0035 8.45354 5.92952 8.58621 5.88299C8.71889 5.83647 8.85989 5.81845 9.00001 5.8301C9.14529 5.84526 9.28549 5.89206 9.41074 5.96721C9.53599 6.04236 9.64326 6.14404 9.72501 6.2651L12.225 9.9601C12.3188 10.1035 12.364 10.2732 12.3541 10.4442C12.3442 10.6152 12.2797 10.7785 12.17 10.9101L10.915 12.4101C11.4148 13.5163 12.1227 14.5161 13 15.3551C13.8717 16.2245 14.9019 16.9187 16.035 17.4001L17.59 16.1651C17.7206 16.0619 17.8795 16.0009 18.0457 15.9901C18.2118 15.9794 18.3772 16.0195 18.52 16.1051L22.295 18.5451C22.4246 18.6224 22.5349 18.7281 22.6178 18.8542C22.7007 18.9802 22.7541 19.1234 22.7738 19.273C22.7935 19.4226 22.7791 19.5747 22.7317 19.7179C22.6843 19.8612 22.6051 19.9918 22.5 20.1001L20.55 22.0301C20.3285 22.2505 20.0656 22.425 19.7764 22.5434C19.4872 22.6618 19.1775 22.7219 18.865 22.7201V22.7201ZM8.92001 6.8201L6.92001 8.7451C6.75873 8.89538 6.63935 9.08504 6.5736 9.29544C6.50785 9.50584 6.49799 9.72974 6.54501 9.9451C7.18037 12.8412 8.64086 15.4913 10.75 17.5751C12.9171 19.6559 15.6278 21.0823 18.57 21.6901C18.7927 21.7367 19.0235 21.7272 19.2416 21.6627C19.4598 21.5981 19.6585 21.4804 19.82 21.3201L21.77 19.3901L18.125 17.0351L16.455 18.3651C16.3911 18.4157 16.3157 18.4499 16.2356 18.4647C16.1554 18.4795 16.0728 18.4745 15.995 18.4501C14.6084 17.9392 13.3517 17.1282 12.315 16.0751C11.2427 15.0737 10.4103 13.8431 9.88001 12.4751C9.85757 12.3923 9.85683 12.3051 9.87784 12.2219C9.89886 12.1387 9.94093 12.0623 10 12.0001L11.35 10.3851L8.92001 6.8201Z" fill="white"/>
</g>
</svg>
