<svg width="88" height="88" viewBox="0 0 88 88" fill="none" xmlns="http://www.w3.org/2000/svg">
<circle cx="44" cy="44" r="44" fill="url(#paint0_linear_0_268)"/>
<path d="M74.6313 13.978C74.6027 13.8398 74.5354 13.7126 74.4372 13.6114C74.3389 13.5101 74.2138 13.4389 74.0766 13.4061C64.925 11.1686 43.7797 19.1421 32.3235 30.5936C30.2801 32.6205 28.4174 34.8215 26.7563 37.1718C23.2235 36.8593 19.6906 37.1202 16.6797 38.4327C8.18439 42.1718 5.71095 51.928 5.02189 56.1249C4.98281 56.3546 4.99755 56.5903 5.06496 56.8133C5.13237 57.0364 5.25061 57.2407 5.41038 57.4103C5.57015 57.58 5.76709 57.7102 5.98572 57.7908C6.20434 57.8714 6.43869 57.9002 6.67033 57.8749L20.3125 56.3702C20.3223 57.3987 20.3843 58.4261 20.4985 59.4483C20.5671 60.1582 20.8822 60.8216 21.3891 61.3233L26.6719 66.5936C27.1741 67.0998 27.8372 67.4148 28.5469 67.4843C29.5634 67.598 30.585 67.66 31.6078 67.6702L30.111 81.2952C30.086 81.5268 30.115 81.761 30.1957 81.9794C30.2764 82.1979 30.4067 82.3947 30.5762 82.5544C30.7458 82.7141 30.95 82.8324 31.1729 82.8999C31.3958 82.9674 31.6313 82.9824 31.861 82.9436C36.05 82.2718 45.8235 79.7983 49.5406 71.303C50.8531 68.2921 51.1219 64.7765 50.8188 61.2608C53.1747 59.5996 55.3815 57.7363 57.4141 55.6921C68.9063 44.2577 76.8344 23.5843 74.6313 13.978ZM45.9485 42.0515C44.8991 41.0028 44.1843 39.6664 43.8945 38.2114C43.6047 36.7564 43.7529 35.2482 44.3204 33.8774C44.888 32.5067 45.8493 31.3351 47.0827 30.5107C48.3162 29.6864 49.7664 29.2464 51.25 29.2464C52.7336 29.2464 54.1838 29.6864 55.4173 30.5107C56.6508 31.3351 57.6121 32.5067 58.1796 33.8774C58.7471 35.2482 58.8953 36.7564 58.6055 38.2114C58.3158 39.6664 57.601 41.0028 56.5516 42.0515C55.8557 42.7483 55.0293 43.3011 54.1196 43.6783C53.2099 44.0555 52.2348 44.2497 51.25 44.2497C50.2652 44.2497 49.2901 44.0555 48.3804 43.6783C47.4707 43.3011 46.6443 42.7483 45.9485 42.0515Z" fill="#1B567C"/>
<path d="M26.3125 70.4109C25.4562 71.2688 24.0828 71.6031 22.4297 71.8891C18.7156 72.5219 15.4359 69.3125 16.1031 65.5578C16.3578 64.1344 17.1109 62.1391 17.5797 61.6703C17.6821 61.5698 17.7503 61.4396 17.7746 61.2982C17.7988 61.1568 17.7779 61.0113 17.7148 60.8824C17.6516 60.7535 17.5495 60.6478 17.4229 60.5803C17.2962 60.5128 17.1516 60.4869 17.0094 60.5063C14.9324 60.7604 13.0002 61.702 11.5203 63.1813C7.84688 66.8578 7.5 80.5 7.5 80.5C7.5 80.5 21.15 80.1531 24.8234 76.4766C26.3073 74.9979 27.2501 73.0627 27.5 70.9828C27.5578 70.3297 26.7625 69.9406 26.3125 70.4109Z" fill="#1B567C"/>
<defs>
<linearGradient id="paint0_linear_0_268" x1="44" y1="0" x2="44" y2="88" gradientUnits="userSpaceOnUse">
<stop stop-color="#67A8D2" stop-opacity="0.88"/>
<stop offset="1" stop-color="#67A8D2" stop-opacity="0"/>
</linearGradient>
</defs>
</svg>
